<svg width="16" height="16" viewBox="0 0 16 16" fill="none" xmlns="http://www.w3.org/2000/svg">
<path fill-rule="evenodd" clip-rule="evenodd" d="M7.99999 1.95801L14.5 4.66701V9.50001H13.5V5.80901L13 6.05901V11.858L12.662 11.973L12.659 11.974L12.652 11.976L12.626 11.986L12.528 12.018C12.0131 12.1866 11.494 12.3416 10.971 12.483C10.043 12.733 8.86099 13 8.00099 13C7.14099 13 5.95699 12.732 5.02999 12.483C4.47346 12.3324 3.92125 12.1664 3.37399 11.985L3.34799 11.976L3.34099 11.974H3.33999L3.49999 11.5L3.33999 11.973L2.99999 11.857V6.06001L0.799988 4.96001L7.99999 1.95801ZM3.99999 6.56001V11.139C4.42699 11.2756 4.85711 11.4023 5.28999 11.519C6.21899 11.769 7.28599 12.001 7.99999 12.001C8.71399 12.001 9.78099 11.769 10.71 11.518C11.1428 11.401 11.5729 11.2743 12 11.138V6.56001L7.99999 8.56001L3.99999 6.56001Z" fill="#FAFAFA"/>
</svg>
